<svg xmlns="http://www.w3.org/2000/svg" viewBox="0 0 512 512" xml:space="preserve" enable-background="new 0 0 512 512"><path d="M256 8.5c-62.13 0-112.5 50.37-112.5 112.5v25h225v-25C368.5 58.857 318.122 8.5 256 8.5z" fill="#ffffff" class="fill-ffffff"></path><path d="M174.87 196H143.5c-8.28 0-15-6.72-15-15v-30c0-8.28 6.72-15 15-15h30l17.833 26.5L174.87 196zM383.5 151v30c0 8.28-6.72 15-15 15h-31.37l-12.463-36.167L338.5 136h30c8.28 0 15 6.72 15 15zM226 257.87h60v45.63h-60z" fill="#ffffff" class="fill-ffffff"></path><path d="M338.15 113.5 278.5 66l-104.65 47.5c-.492 5.063-.35 3.269-.35 67.5 0 45.509 36.889 82.5 82.5 82.5 45.651 0 82.5-37.04 82.5-82.5v-45c-.075-13.657.201-16.834-.35-22.5zM115.57 318.54C84.67 321.35 61 347.26 61 378.3v125.2h56.25L151 461.167 121.49 318.14l-5.92.4zM396.43 318.54l-5.92-.4c.33 1.74-20.51 89.027-20.51 89.027l24.75 96.333H451V378.3c0-31.04-23.67-56.95-54.57-59.76z" fill="#ffffff" class="fill-ffffff"></path><path d="M391 323.5V476H121V323.5c0-16.441 13.31-30 30-30h210c16.702 0 30 13.572 30 30z" fill="#ffffff" class="fill-cddcf9"></path><circle cx="256" cy="379.75" r="30" fill="#ffffff" class="fill-ffffff"></circle><path d="M338.15 113.5h-11.11a54.242 54.242 0 0 1-48.54-30 54.254 54.254 0 0 1-48.54 30h-56.11c3.78-42.05 39.12-75 82.15-75 42.866 0 78.374 32.783 82.15 75z" fill="#ffffff" class="fill-cddcf9"></path><path d="M394.75 466c10.36 0 18.75 8.39 18.75 18.75 0 10.359-8.39 18.75-18.75 18.75h-277.5c-10.36 0-18.75-8.39-18.75-18.75 0-10.359 8.39-18.75 18.75-18.75h277.5z" fill="#ffffff" class="fill-ffffff"></path><path d="M440.84 332.78c-19.356-21.209-43.772-21.581-44.48-21.78-5.16-14.55-19.06-25-35.36-25h-67.5v-23.19c14.24-6.56 26.48-16.72 35.56-29.31h17.44c12.13 0 22-9.87 22-22v-8c12.406 0 22.5-10.094 22.5-22.5v-30c0-9.777-6.271-18.114-15-21.21V121C376 54.832 322.168 1 256 1S136 54.832 136 121v8.79c-8.729 3.096-15 11.433-15 21.21v30c0 12.406 10.094 22.5 22.5 22.5h25.348c6.703 25.907 24.864 47.899 49.652 59.31V286H151c-16.269 0-30.188 10.431-35.352 25.001C78.821 314.332 53.5 344.435 53.5 378.3v125.2c0 4.14 3.36 7.5 7.5 7.5h390c4.14 0 7.5-3.36 7.5-7.5V378.3c0-16.89-6.27-33.05-17.66-45.52zM394.705 458.5l-2.937.001c1.202-.006 2.148-.01 2.937-.001zm-41.205-247c0 3.86-3.14 7-7 7h-8.69a88.713 88.713 0 0 0 5.331-15H353.5v8zM376 151v30c0 4.136-3.364 7.5-7.5 7.5h-22.81c.54-6.662.216-8.182.31-45h22.5c4.136 0 7.5 3.364 7.5 7.5zm-225-30c0-57.897 47.102-105 105-105s105 47.103 105 105v7.5h-15v-15c0-32.999-34.158-82.5-90-82.5-56.067 0-90 49.843-90 82.5v15h-15V121zm178.49-15h-2.45c-17.83 0-33.86-9.91-41.83-25.85-1.27-2.54-3.87-4.15-6.71-4.15s-5.44 1.61-6.71 4.15c-7.97 15.94-24 25.85-41.83 25.85h-47.45c6.97-34.19 37.27-60 73.49-60s66.52 25.81 73.49 60zM143.5 188.5c-4.136 0-7.5-3.364-7.5-7.5v-30c0-4.136 3.364-7.5 7.5-7.5h22.519c-.008 39.893-.157 39.728.291 45H143.5zM181 181v-60h48.96c19.29 0 36.98-8.78 48.54-23.53 11.56 14.75 29.25 23.53 48.54 23.53H331v60a74.744 74.744 0 0 1-10.09 37.5H263.5c-4.14 0-7.5 3.36-7.5 7.5s3.36 7.5 7.5 7.5h45.99C295.88 247.37 276.93 256 256 256c-41.307 0-75-33.585-75-75zm52.5 87.15a90.206 90.206 0 0 0 45 0V286h-45v-17.85zM151 301h210c12.41 0 22.5 10.09 22.5 22.5v135c14.933.098-236.558-.036-255-.018V323.5c0-12.41 10.09-22.5 22.5-22.5zm-30.503 157.501c-2.602.012-4.088.031-4.982.057 1.219-.074 2.625-.069 4.982-.057zM93.54 496H68.5V378.3c0-27.006 19.872-48.461 45-51.974V458.77c-12.7 1.82-22.5 12.78-22.5 25.98 0 4.02.91 7.84 2.54 11.25zm301.21 0h-277.5c-6.2 0-11.25-5.05-11.25-11.25s5.05-11.25 11.25-11.25h277.5c6.2 0 11.25 5.05 11.25 11.25S400.95 496 394.75 496zm48.75 0h-25.04a26.03 26.03 0 0 0 2.54-11.25c0-14.07-11.085-25.466-24.822-26.21a22.94 22.94 0 0 1 2.322.229V326.33c25.84 3.69 45 25.56 45 51.97V496zm-48.686-37.499z" fill="#ff6b00" class="fill-487fe9"></path><path d="M293.5 158.5h7.5c4.143 0 7.5-3.357 7.5-7.5s-3.357-7.5-7.5-7.5h-7.5c-4.143 0-7.5 3.357-7.5 7.5s3.357 7.5 7.5 7.5zM218.5 143.5H211c-4.143 0-7.5 3.357-7.5 7.5s3.357 7.5 7.5 7.5h7.5c4.143 0 7.5-3.357 7.5-7.5s-3.357-7.5-7.5-7.5zM256 417.25c20.68 0 37.5-16.82 37.5-37.5s-16.82-37.5-37.5-37.5-37.5 16.82-37.5 37.5 16.82 37.5 37.5 37.5zm0-60c12.41 0 22.5 10.09 22.5 22.5s-10.09 22.5-22.5 22.5-22.5-10.09-22.5-22.5 10.09-22.5 22.5-22.5z" fill="#ff6b00" class="fill-487fe9"></path></svg>